<svg xmlns="http://www.w3.org/2000/svg" width="420.009" height="103.667" viewBox="0 0 420.009 103.667"><path d="M26.887 61.245c1.123 9.84-3.953 18.505-11.334 19.346-7.383.84-14.276-6.45-15.398-16.3-1.12-9.84 3.953-18.5 11.334-19.34 7.38-.84 14.27 6.457 15.39 16.3zm26.05-32.772c.82 9.872-4.52 18.372-11.923 18.986-7.405.61-14.07-6.9-14.89-16.77-.82-9.875 4.52-18.376 11.923-18.99 7.405-.614 14.07 6.89 14.89 16.766zm33.103 2.94c-1.345 9.815-8.408 16.95-15.768 15.94-7.358-1.01-12.237-9.784-10.886-19.6 1.346-9.815 8.408-16.95 15.77-15.94 7.36 1.01 12.233 9.786 10.885 19.6zm26.945 32.9c-1.143 9.84-8.048 17.127-15.428 16.27-7.378-.852-12.44-9.522-11.3-19.362 1.14-9.84 8.047-17.12 15.427-16.27 7.38.86 12.437 9.53 11.3 19.37zM56.74 52.736c-12.38 0-36.044 28.608-36.044 36.037 0 7.43 6.023 13.455 13.452 13.455 5.22 0 18.746-4.648 22.592-4.648 3.713 0 17.04 4.796 22.25 4.796 7.43 0 13.458-6.023 13.458-13.455-.002-7.37-23.323-36.182-35.708-36.182z" fill="#2F302F"/><path d="M177.265 91.174v11.204h-39.277V91.174l9.66-3.22V26.787l-9.66-3.863v-10.69l29.62-.643h12.233c9.79 0 17.45 2.41 22.99 7.22 5.54 4.81 8.31 11.42 8.31 19.83 0 10.646-3.154 18.67-9.465 24.08-6.31 5.41-15.39 8.11-27.236 8.11h-6.826v17.13l9.658 3.22zm-9.658-64.388V55.76h6.825c5.41 0 9.55-1.243 12.427-3.733 2.87-2.49 4.31-6.096 4.31-10.817 0-4.292-1.14-7.77-3.417-10.432-2.276-2.66-5.56-3.992-9.853-3.992h-10.3zm85.378 4.764c10.387 0 18.394 3.027 24.017 9.08 5.623 6.052 8.437 14.617 8.437 25.69 0 11.507-3.12 20.605-9.34 27.303-6.23 6.695-14.578 10.044-25.05 10.044-21.89 0-32.84-11.804-32.84-35.414 0-11.503 3.132-20.496 9.4-26.98 6.264-6.48 14.72-9.723 25.37-9.723zm-.644 14.81c-4.89 0-8.47 1.59-10.75 4.766s-3.41 8.673-3.41 16.483c0 7.38 1.07 12.77 3.22 16.16 2.147 3.39 5.58 5.08 10.305 5.08 4.72 0 8.197-1.674 10.43-5.02 2.23-3.35 3.35-8.97 3.35-16.87 0-6.955-1.053-12.125-3.154-15.52-2.107-3.39-5.434-5.086-9.983-5.086zm42.11-12.49l29.24-1.03v56.018l9.015 3.22v10.302h-38.25V92.077l10.304-3.22v-42.11l-10.304-2.575V33.87zm7.86-22.28c0-3.52 1.097-6.33 3.287-8.435C307.78 1.052 310.377 0 313.38 0c7.213 0 10.82 3.863 10.82 11.59 0 3.606-1.097 6.46-3.286 8.564-2.188 2.105-4.7 3.155-7.533 3.155-3.52 0-6.24-1.01-8.17-3.03-1.93-2.02-2.895-4.918-2.895-8.697zm38.248 22.28l26.658-1.03.9 8.884c.945-.77 2.19-1.693 3.735-2.768 1.545-1.072 4.4-2.53 8.564-4.378 4.16-1.845 7.96-2.77 11.396-2.77 6.18 0 10.923 2.042 14.23 6.118 3.302 4.08 4.955 9.68 4.955 16.806v34.126c1.117.344 2.706.9 4.768 1.674 2.06.772 3.48 1.288 4.25 1.546v10.302h-34.77V92.077l6.825-3.22V57.692c0-3.004-.795-5.473-2.383-7.404-1.59-1.932-3.714-2.896-6.375-2.896-2.402 0-4.743.623-7.02 1.866-2.272 1.246-3.97 2.47-5.085 3.67l-1.674 1.804v34.126l6.7 3.22v10.302h-35.68V92.077l9.916-3.22v-42.11l-9.916-2.575V33.87z" fill="#2E2F2F"/></svg>