<svg xmlns="http://www.w3.org/2000/svg" width="420.009" height="103.667" viewBox="0 0 420.009 103.667"><g fill="#2F302F"><path d="M26.887 61.245c1.123 9.84-3.953 18.505-11.334 19.346-7.383.84-14.276-6.457-15.398-16.3-1.12-9.842 3.953-18.504 11.334-19.345 7.383-.84 14.275 6.456 15.397 16.3zM52.936 28.473c.82 9.872-4.518 18.372-11.922 18.986-7.405.61-14.07-6.892-14.89-16.765-.82-9.873 4.52-18.374 11.923-18.987 7.405-.615 14.07 6.89 14.89 16.765zM86.04 31.414c-1.345 9.814-8.408 16.95-15.768 15.94-7.358-1.012-12.237-9.785-10.886-19.602 1.346-9.814 8.408-16.95 15.77-15.938 7.36 1.01 12.233 9.785 10.885 19.6zM112.985 64.312c-1.143 9.84-8.048 17.128-15.428 16.272-7.378-.853-12.44-9.523-11.3-19.363 1.14-9.84 8.047-17.126 15.427-16.27 7.38.853 12.437 9.524 11.3 19.362zM56.74 52.737c-12.38 0-36.044 28.608-36.044 36.037 0 7.43 6.023 13.455 13.452 13.455 5.22 0 18.746-4.647 22.592-4.647 3.713 0 17.04 4.796 22.25 4.796 7.43 0 13.458-6.023 13.458-13.455-.002-7.377-23.323-36.188-35.708-36.188z"/></g><g fill="#2E2F2F"><path d="M177.265 91.174v11.204h-39.277V91.174l9.66-3.22V26.787l-9.66-3.863v-10.69l29.62-.643h12.233c9.788 0 17.45 2.405 22.988 7.212 5.537 4.81 8.305 11.42 8.305 19.832 0 10.646-3.154 18.672-9.465 24.082-6.31 5.408-15.388 8.112-27.236 8.112h-6.825v17.128l9.658 3.218zm-9.658-64.388V55.76h6.825c5.41 0 9.55-1.243 12.427-3.733 2.875-2.49 4.313-6.096 4.313-10.817 0-4.292-1.14-7.77-3.413-10.432-2.275-2.66-5.56-3.992-9.852-3.992h-10.3zM252.985 31.55c10.387 0 18.394 3.027 24.017 9.08 5.623 6.052 8.437 14.617 8.437 25.69 0 11.507-3.115 20.605-9.337 27.303-6.227 6.695-14.574 10.044-25.05 10.044-21.89 0-32.837-11.804-32.837-35.414 0-11.503 3.133-20.496 9.4-26.98 6.265-6.48 14.722-9.723 25.37-9.723zm-.644 14.81c-4.892 0-8.478 1.59-10.753 4.766s-3.41 8.673-3.41 16.483c0 7.384 1.07 12.77 3.218 16.16 2.145 3.393 5.58 5.087 10.303 5.087 4.72 0 8.197-1.674 10.43-5.022 2.232-3.348 3.35-8.97 3.35-16.87 0-6.954-1.053-12.124-3.154-15.518-2.107-3.39-5.434-5.087-9.983-5.087zM294.45 33.87l29.234-1.03v56.018l9.015 3.22v10.302h-38.25V92.077l10.304-3.22v-42.11l-10.303-2.575V33.87zm7.858-22.28c0-3.52 1.093-6.33 3.283-8.435C307.78 1.052 310.376 0 313.38 0c7.213 0 10.82 3.863 10.82 11.59 0 3.606-1.097 6.46-3.286 8.564-2.188 2.105-4.7 3.155-7.533 3.155-3.52 0-6.243-1.01-8.176-3.027-1.93-2.016-2.896-4.914-2.896-8.693zM340.552 33.87l26.658-1.03.9 8.884c.944-.77 2.19-1.693 3.734-2.768 1.545-1.072 4.4-2.53 8.564-4.378 4.162-1.845 7.96-2.77 11.396-2.77 6.182 0 10.925 2.042 14.23 6.118 3.304 4.08 4.957 9.68 4.957 16.806v34.126c1.116.344 2.705.9 4.767 1.674 2.06.772 3.478 1.288 4.25 1.546v10.302h-34.77V92.077l6.824-3.22V57.692c0-3.004-.794-5.473-2.382-7.404-1.59-1.932-3.714-2.896-6.375-2.896-2.403 0-4.744.623-7.02 1.866-2.273 1.246-3.97 2.47-5.086 3.67l-1.674 1.804v34.126l6.697 3.22v10.302h-35.672V92.077l9.916-3.22v-42.11l-9.916-2.575V33.87z"/></g></svg>