<?xml version="1.0" encoding="utf-8"?>
<!-- Generator: Adobe Illustrator 16.0.0, SVG Export Plug-In . SVG Version: 6.00 Build 0)  -->
<!DOCTYPE svg PUBLIC "-//W3C//DTD SVG 1.1//EN" "http://www.w3.org/Graphics/SVG/1.1/DTD/svg11.dtd">
<svg version="1.1" id="レイヤー_1" xmlns="http://www.w3.org/2000/svg" xmlns:xlink="http://www.w3.org/1999/xlink" x="0px"
	 y="0px" width="420.009px" height="103.667px" viewBox="0 0 420.009 103.667" enable-background="new 0 0 420.009 103.667"
	 xml:space="preserve">
<g>
	<g>
		<path fill="#2F302F" d="M26.887,61.245c1.123,9.841-3.953,18.505-11.334,19.346C8.17,81.429,1.277,74.133,0.155,64.29
			c-1.121-9.842,3.953-18.504,11.334-19.345C18.873,44.104,25.765,51.401,26.887,61.245z"/>
		<path fill="#2F302F" d="M52.936,28.473c0.82,9.872-4.518,18.372-11.922,18.986c-7.405,0.612-14.071-6.891-14.889-16.764
			c-0.82-9.873,4.518-18.374,11.922-18.987C45.452,11.093,52.117,18.599,52.936,28.473z"/>
		<path fill="#2F302F" d="M86.041,31.414c-1.346,9.814-8.409,16.951-15.769,15.939c-7.358-1.011-12.237-9.784-10.886-19.601
			c1.346-9.814,8.408-16.951,15.769-15.938C82.515,12.823,87.389,21.599,86.041,31.414z"/>
		<path fill="#2F302F" d="M112.985,64.312c-1.143,9.84-8.048,17.128-15.428,16.272c-7.378-0.853-12.44-9.523-11.299-19.363
			c1.139-9.841,8.046-17.127,15.426-16.271C109.063,45.803,114.121,54.474,112.985,64.312z"/>
		<path fill="#2F302F" d="M56.74,52.737c-12.38,0-36.044,28.608-36.044,36.037c0,7.431,6.023,13.455,13.452,13.455
			c5.221,0,18.746-4.646,22.592-4.646c3.713,0,17.04,4.796,22.251,4.796c7.429,0,13.457-6.022,13.457-13.454
			C92.446,81.548,69.125,52.737,56.74,52.737z"/>
	</g>
	<g>
		<path fill="#2E2F2F" d="M177.265,91.174v11.204h-39.277V91.174l9.659-3.219V26.786l-9.659-3.863V12.234l29.619-0.644h12.234
			c9.787,0,17.449,2.405,22.987,7.212c5.537,4.809,8.305,11.419,8.305,19.832c0,10.646-3.154,18.672-9.465,24.082
			c-6.309,5.408-15.388,8.112-27.236,8.112h-6.825v17.128L177.265,91.174z M167.607,26.786v28.975h6.825
			c5.409,0,9.549-1.244,12.427-3.734c2.876-2.489,4.314-6.096,4.314-10.817c0-4.292-1.139-7.769-3.413-10.432
			c-2.275-2.66-5.56-3.992-9.852-3.992H167.607z"/>
		<path fill="#2E2F2F" d="M252.985,31.55c10.387,0,18.394,3.027,24.017,9.08c5.623,6.052,8.437,14.617,8.437,25.691
			c0,11.506-3.114,20.604-9.336,27.302c-6.227,6.695-14.574,10.044-25.049,10.044c-21.892,0-32.838-11.804-32.838-35.414
			c0-11.503,3.133-20.496,9.4-26.979C233.881,34.792,242.338,31.55,252.985,31.55z M252.341,46.36c-4.893,0-8.479,1.59-10.754,4.766
			s-3.411,8.673-3.411,16.483c0,7.385,1.072,12.771,3.219,16.161c2.145,3.393,5.58,5.087,10.303,5.087
			c4.719,0,8.197-1.674,10.431-5.022c2.231-3.348,3.349-8.97,3.349-16.869c0-6.955-1.053-12.125-3.154-15.519
			C260.217,48.056,256.89,46.36,252.341,46.36z"/>
		<path fill="#2E2F2F" d="M294.451,33.869l29.233-1.03v56.019l9.015,3.22v10.302h-38.248V92.077l10.303-3.22v-42.11l-10.303-2.575
			V33.869z M302.308,11.59c0-3.52,1.093-6.33,3.283-8.435C307.781,1.052,310.375,0,313.381,0c7.212,0,10.818,3.863,10.818,11.59
			c0,3.606-1.096,6.461-3.285,8.564c-2.188,2.105-4.699,3.155-7.533,3.155c-3.521,0-6.244-1.008-8.177-3.026
			C303.273,18.267,302.308,15.369,302.308,11.59z"/>
		<path fill="#2E2F2F" d="M340.552,33.869l26.658-1.03l0.9,8.885c0.944-0.771,2.189-1.693,3.734-2.768
			c1.545-1.072,4.399-2.531,8.564-4.378c4.162-1.845,7.961-2.769,11.396-2.769c6.182,0,10.925,2.041,14.23,6.117
			c3.304,4.079,4.957,9.681,4.957,16.806v34.126c1.115,0.344,2.704,0.901,4.766,1.674c2.06,0.772,3.478,1.288,4.25,1.546v10.302
			h-34.771V92.077l6.825-3.22V57.692c0-3.004-0.795-5.473-2.383-7.404c-1.589-1.932-3.714-2.896-6.375-2.896
			c-2.403,0-4.744,0.623-7.019,1.866c-2.274,1.246-3.972,2.47-5.087,3.671l-1.674,1.803v34.126l6.697,3.22v10.302h-35.672V92.077
			l9.916-3.22v-42.11l-9.916-2.575V33.869z"/>
	</g>
</g>
</svg>
